/* XPM */
static char * floor_xpm[] = {
"64 64 298 2",
"  	c #072435",
". 	c #144057",
"+ 	c #19485D",
"@ 	c #19485E",
"# 	c #133E56",
"$ 	c #0B2032",
"% 	c #0E3046",
"& 	c #16445A",
"* 	c #103A52",
"= 	c #09101F",
"- 	c #103851",
"; 	c #17455B",
"> 	c #0E3248",
", 	c #0A1E2F",
"' 	c #133E55",
") 	c #154157",
"! 	c #0C283C",
"~ 	c #04050E",
"{ 	c #0D314B",
"] 	c #1C5071",
"^ 	c #205473",
"/ 	c #1B4B6C",
"( 	c #132A43",
"_ 	c #164162",
": 	c #1E5272",
"< 	c #205472",
"[ 	c #184668",
"} 	c #111A2F",
"| 	c #184B6F",
"1 	c #1E5170",
"2 	c #163D5D",
"3 	c #132B44",
"4 	c #1A4F71",
"5 	c #1C4D6D",
"6 	c #14334E",
"7 	c #080C19",
"8 	c #0B2A45",
"9 	c #153B60",
"0 	c #153054",
"a 	c #12203A",
"b 	c #14395C",
"c 	c #15365A",
"d 	c #153053",
"e 	c #11182D",
"f 	c #154167",
"g 	c #153055",
"h 	c #142B4C",
"i 	c #122641",
"j 	c #153E64",
"k 	c #132441",
"l 	c #15355A",
"m 	c #122640",
"n 	c #0A223C",
"o 	c #153458",
"p 	c #132F50",
"q 	c #153256",
"r 	c #11182C",
"s 	c #12213A",
"t 	c #153559",
"u 	c #0A1D36",
"v 	c #132A4A",
"w 	c #152F53",
"x 	c #121E37",
"y 	c #15395E",
"z 	c #153C61",
"A 	c #11192D",
"B 	c #153357",
"C 	c #143658",
"D 	c #15375B",
"E 	c #132D4B",
"F 	c #0A2641",
"G 	c #13425F",
"H 	c #10485A",
"I 	c #104B5E",
"J 	c #102E3F",
"K 	c #133556",
"L 	c #11455C",
"M 	c #104B5F",
"N 	c #101A2D",
"O 	c #143C61",
"P 	c #10495B",
"Q 	c #104356",
"R 	c #12243D",
"S 	c #134060",
"T 	c #104A5D",
"U 	c #103749",
"V 	c #08172A",
"W 	c #112A3F",
"X 	c #102E3C",
"Y 	c #101F2F",
"Z 	c #12233C",
"` 	c #102C3E",
" .	c #11172A",
"..	c #122741",
"+.	c #102938",
"@.	c #111B30",
"#.	c #112940",
"$.	c #102333",
"%.	c #0D2F45",
"&.	c #1E5370",
"*.	c #245D78",
"=.	c #245C78",
"-.	c #1C506E",
";.	c #132D44",
">.	c #163F5C",
",.	c #215774",
"'.	c #194B6A",
").	c #111B2E",
"!.	c #184968",
"~.	c #235C77",
"{.	c #215975",
"].	c #17415E",
"^.	c #132940",
"/.	c #1C4F6E",
"(.	c #1E5371",
"_.	c #15364F",
":.	c #0C2E48",
"<.	c #184568",
"[.	c #1B4363",
"}.	c #1B4364",
"|.	c #183E60",
"1.	c #12253E",
"2.	c #153D5F",
"3.	c #194466",
"4.	c #163B5E",
"5.	c #11192E",
"6.	c #17466B",
"7.	c #1A4364",
"8.	c #1A4162",
"9.	c #153454",
"0.	c #122842",
"a.	c #18466A",
"b.	c #193F60",
"c.	c #142C48",
"d.	c #153A60",
"e.	c #154067",
"f.	c #153D63",
"g.	c #0A1E37",
"h.	c #153155",
"i.	c #132B4B",
"j.	c #143154",
"k.	c #121F38",
"l.	c #121F39",
"m.	c #142F53",
"n.	c #142A4B",
"o.	c #122441",
"p.	c #122843",
"q.	c #143054",
"r.	c #154066",
"s.	c #143559",
"t.	c #143A5C",
"u.	c #153A5E",
"v.	c #13304E",
"w.	c #0A2944",
"x.	c #124762",
"y.	c #0E4E5B",
"z.	c #0E4F5C",
"A.	c #0F2F3D",
"B.	c #14385A",
"C.	c #104A5F",
"D.	c #101B2D",
"E.	c #144065",
"F.	c #0E4E5C",
"G.	c #0E4553",
"H.	c #12253F",
"I.	c #134564",
"J.	c #0F3946",
"K.	c #080F1D",
"L.	c #111C30",
"M.	c #121E31",
"N.	c #111D30",
"O.	c #11182B",
"P.	c #111A2E",
"Q.	c #111C2F",
"R.	c #111629",
"S.	c #111B2F",
"T.	c #111E30",
"U.	c #11192C",
"V.	c #0E364E",
"W.	c #205C7C",
"X.	c #276784",
"Y.	c #1F597A",
"Z.	c #14314A",
"`.	c #184766",
" +	c #236180",
".+	c #1B5375",
"++	c #1A5274",
"@+	c #276684",
"#+	c #246281",
"$+	c #132E46",
"%+	c #1E597A",
"&+	c #215D7D",
"*+	c #163B57",
"=+	c #153B61",
"-+	c #153154",
";+	c #15365B",
">+	c #153255",
",+	c #132541",
"'+	c #0B2842",
")+	c #15385D",
"!+	c #153459",
"~+	c #152F52",
"{+	c #12223C",
"]+	c #142F50",
"^+	c #132745",
"/+	c #0A213A",
"(+	c #143758",
"_+	c #133A56",
":+	c #134261",
"<+	c #112B42",
"[+	c #132E4E",
"}+	c #133857",
"|+	c #143458",
"1+	c #133D5A",
"2+	c #123E5B",
"3+	c #122039",
"4+	c #143659",
"5+	c #13405E",
"6+	c #12334D",
"7+	c #0A243C",
"8+	c #113F58",
"9+	c #0E4552",
"0+	c #0E4652",
"a+	c #102A38",
"b+	c #133251",
"c+	c #104255",
"d+	c #0E4551",
"e+	c #10192C",
"f+	c #13395A",
"g+	c #0F4552",
"h+	c #0F3D4A",
"i+	c #11223B",
"j+	c #123D59",
"k+	c #0F3240",
"l+	c #16364E",
"m+	c #193C52",
"n+	c #1A3C52",
"o+	c #16354D",
"p+	c #122035",
"q+	c #132B42",
"r+	c #183950",
"s+	c #143149",
"t+	c #183A50",
"u+	c #132C43",
"v+	c #121F33",
"w+	c #16354C",
"x+	c #17374E",
"y+	c #12253B",
"z+	c #0E334D",
"A+	c #1E5577",
"B+	c #235C7B",
"C+	c #1C5172",
"D+	c #132D46",
"E+	c #174464",
"F+	c #205979",
"G+	c #194C6E",
"H+	c #194F72",
"I+	c #215978",
"J+	c #174362",
"K+	c #132C45",
"L+	c #1C5376",
"M+	c #1E5475",
"N+	c #153753",
"O+	c #142B4B",
"P+	c #0A243E",
"Q+	c #133253",
"R+	c #15395D",
"S+	c #15375C",
"T+	c #12243F",
"U+	c #143355",
"V+	c #132B49",
"W+	c #133E5C",
"X+	c #114358",
"Y+	c #11485F",
"Z+	c #112C40",
"`+	c #12405A",
" @	c #114961",
".@	c #101A2E",
"+@	c #14395E",
"@@	c #11455B",
"#@	c #114158",
"$@	c #143D5D",
"%@	c #11475D",
"&@	c #11364B",
"*@	c #091D32",
"=@	c #11334A",
"-@	c #0F3845",
";@	c #102433",
">@	c #122945",
",@	c #103648",
"'@	c #0F3945",
")@	c #10182B",
"!@	c #122F4C",
"~@	c #0F323F",
"{@	c #111E34",
"]@	c #12324B",
"^@	c #03050D",
"/@	c #080B18",
"  . + @ @ @ @ @ @ @ @ @ @ + # $ % & @ @ @ @ @ @ @ @ @ @ @ + * = - + @ @ @ @ @ @ @ @ @ @ @ ; > , ' + @ @ @ @ @ @ @ @ @ @ @ ) ! ~ ",
"{ ] ^ ^ ^ ^ ^ ^ ^ ^ ^ ^ ^ ^ / ( _ : ^ ^ ^ ^ ^ ^ ^ ^ ^ ^ ^ < [ } | < ^ ^ ^ ^ ^ ^ ^ ^ ^ ^ ^ 1 2 3 4 ^ ^ ^ ^ ^ ^ ^ ^ ^ ^ ^ ^ 5 6 7 ",
"8 9 0 0 0 0 0 0 0 0 0 0 0 0 0 a b c 0 0 0 0 0 0 0 0 0 0 0 0 d e f g 0 0 0 0 0 0 0 0 0 0 0 0 h i j 0 0 0 0 0 0 0 0 0 0 0 0 0 k 7 ",
"8 9 0 0 0 0 0 0 0 0 0 0 0 0 0 a b c 0 0 0 0 0 0 0 0 0 0 0 0 d e f g 0 0 0 0 0 0 0 0 0 0 0 0 h i j 0 0 0 0 0 0 0 0 0 0 0 0 0 k 7 ",
"8 9 0 0 0 0 0 0 0 0 0 0 0 0 0 a b c 0 0 0 0 0 0 0 0 0 0 0 0 d e f g 0 0 0 0 0 0 0 0 0 0 0 0 h i j 0 0 0 0 0 0 0 0 0 0 0 0 0 k 7 ",
"8 9 0 0 0 0 0 0 0 0 0 0 0 0 0 a b c 0 0 0 0 0 0 0 0 0 0 0 0 d e f g 0 0 0 0 0 0 0 0 0 0 0 0 h i j 0 0 0 0 0 0 0 0 0 0 0 0 0 k 7 ",
"8 9 0 0 0 0 0 0 0 0 0 0 0 0 0 a b c 0 0 0 0 0 0 0 0 0 0 0 0 d e f g 0 0 0 0 0 0 0 0 0 0 0 0 h i j 0 0 0 0 0 0 0 0 0 0 0 0 0 k 7 ",
"8 9 0 0 0 0 0 0 0 0 0 0 0 0 0 a b c 0 0 0 0 0 0 0 0 0 0 0 0 d e f g 0 0 0 0 0 0 0 0 0 0 0 0 h i j 0 0 0 0 0 0 0 0 0 0 0 0 0 k 7 ",
"8 9 0 0 0 0 0 0 0 0 0 0 0 0 0 a b c 0 0 0 0 0 0 0 0 0 0 0 0 d e f g 0 0 0 0 0 0 0 0 0 0 0 0 h i j 0 0 0 0 0 0 0 0 0 0 0 0 0 k 7 ",
"8 9 0 0 0 0 0 0 0 0 0 0 0 0 0 a b c 0 0 0 0 0 0 0 0 0 0 0 0 d e f g 0 0 0 0 0 0 0 0 0 0 0 0 h i j 0 0 0 0 0 0 0 0 0 0 0 0 0 k 7 ",
"8 9 0 0 0 0 0 0 0 0 0 0 0 0 0 a b l 0 0 0 0 0 0 0 0 0 0 0 0 d e f 0 0 0 0 0 0 0 0 0 0 0 0 0 h m j 0 0 0 0 0 0 0 0 0 0 0 0 0 k 7 ",
"n o 0 0 0 0 0 0 0 0 0 0 0 0 0 a p q 0 0 0 0 0 0 0 0 0 0 0 0 d r c 0 0 0 0 0 0 0 0 0 0 0 0 0 h s t 0 0 0 0 0 0 0 0 0 0 0 0 0 k 7 ",
"u 0 0 0 0 0 0 0 0 0 0 0 0 0 0 a v 0 0 0 0 0 0 0 0 0 0 0 0 0 d r w 0 0 0 0 0 0 0 0 0 0 0 0 0 h x 0 0 0 0 0 0 0 0 0 0 0 0 0 0 k 7 ",
"u 0 0 0 0 0 0 0 0 0 0 0 0 0 y m v 0 0 0 0 0 0 0 0 0 0 0 0 0 z A w 0 0 0 0 0 0 0 0 0 0 0 0 B C x 0 0 0 0 0 0 0 0 0 0 0 0 0 D E 7 ",
"F G H H H H H H H H H H H H I J K L H H H H H H H H H H H H M N O H H H H H H H H H H H H P Q R S H H H H H H H H H H H H T U 7 ",
"V W X X X X X X X X X X X X X Y Z ` X X X X X X X X X X X X X  ...X X X X X X X X X X X X X +.@.#.X X X X X X X X X X X X X $.7 ",
"%.&.*.*.*.*.*.*.*.*.*.*.*.=.-.;.>.,.*.*.*.*.*.*.*.*.*.*.*.=.'.).!.~.*.*.*.*.*.*.*.*.*.*.*.{.].^./.=.*.*.*.*.*.*.*.*.*.*.*.(._.7 ",
":.<.[.}.}.}.}.}.}.}.}.}.}.[.|.1.2.3.}.}.}.}.}.}.}.}.}.}.}.[.4.5.6.7.}.}.}.}.}.}.}.}.}.}.}.8.9.0.a.[.}.}.}.}.}.}.}.}.}.}.[.b.c.7 ",
"8 9 0 0 0 0 0 0 0 0 0 0 0 0 0 a b c 0 0 0 0 0 0 0 0 0 0 0 0 d e f g 0 0 0 0 0 0 0 0 0 0 0 0 h i j 0 0 0 0 0 0 0 0 0 0 0 0 0 k 7 ",
"8 9 0 0 0 0 0 0 0 0 0 0 0 0 0 a b c 0 0 0 0 0 0 0 0 0 0 0 0 d e f g 0 0 0 0 0 0 0 0 0 0 0 0 h i j 0 0 0 0 0 0 0 0 0 0 0 0 0 k 7 ",
"8 9 0 0 0 0 0 0 0 0 0 0 0 0 0 a b c 0 0 0 0 0 0 0 0 0 0 0 0 d e f g 0 0 0 0 0 0 0 0 0 0 0 0 h i j 0 0 0 0 0 0 0 0 0 0 0 0 0 k 7 ",
"8 9 0 0 0 0 0 0 0 0 0 0 0 0 0 a b c 0 0 0 0 0 0 0 0 0 0 0 0 d e f g 0 0 0 0 0 0 0 0 0 0 0 0 h i j 0 0 0 0 0 0 0 0 0 0 0 0 0 k 7 ",
"8 9 0 0 0 0 0 0 0 0 0 0 0 0 0 a b c 0 0 0 0 0 0 0 0 0 0 0 0 d e f g 0 0 0 0 0 0 0 0 0 0 0 0 h i j 0 0 0 0 0 0 0 0 0 0 0 0 0 k 7 ",
"8 9 0 0 0 0 0 0 0 0 0 0 0 0 0 a b c 0 0 0 0 0 0 0 0 0 0 0 0 d e f g 0 0 0 0 0 0 0 0 0 0 0 0 h i j 0 0 0 0 0 0 0 0 0 0 0 0 0 k 7 ",
"8 9 0 0 0 0 0 0 0 0 0 0 0 0 0 a b c 0 0 0 0 0 0 0 0 0 0 0 0 d e f g 0 0 0 0 0 0 0 0 0 0 0 0 h i j 0 0 0 0 0 0 0 0 0 0 0 0 0 k 7 ",
"8 9 0 0 0 0 0 0 0 0 0 0 0 0 0 a b c 0 0 0 0 0 0 0 0 0 0 0 0 d e f g 0 0 0 0 0 0 0 0 0 0 0 0 h i j 0 0 0 0 0 0 0 0 0 0 0 0 0 k 7 ",
"8 d.0 0 0 0 0 0 0 0 0 0 0 0 0 a b l 0 0 0 0 0 0 0 0 0 0 0 0 d e e.0 0 0 0 0 0 0 0 0 0 0 0 0 h m f.0 0 0 0 0 0 0 0 0 0 0 0 0 k 7 ",
"g.h.0 0 0 0 0 0 0 0 0 0 0 0 0 a i.0 0 0 0 0 0 0 0 0 0 0 0 0 d r j.0 0 0 0 0 0 0 0 0 0 0 0 0 h k.h.0 0 0 0 0 0 0 0 0 0 0 0 0 k 7 ",
"u 0 0 0 0 0 0 0 0 0 0 0 0 0 0 l.v 0 0 0 0 0 0 0 0 0 0 0 0 0 m.r w 0 0 0 0 0 0 0 0 0 0 0 0 0 n.x 0 0 0 0 0 0 0 0 0 0 0 0 0 0 o.7 ",
"u 0 0 0 0 0 0 0 0 0 0 0 0 0 z p.v 0 0 0 0 0 0 0 0 0 0 0 0 q.r.5.m.0 0 0 0 0 0 0 0 0 0 0 0 s.t.x 0 0 0 0 0 0 0 0 0 0 0 0 0 u.v.7 ",
"w.x.y.y.y.y.y.y.y.y.y.y.y.y.z.A.B.C.y.y.y.y.y.y.y.y.y.y.y.y.y.D.E.F.y.y.y.y.y.y.y.y.y.y.y.z.G.H.I.y.y.y.y.y.y.y.y.y.y.y.y.z.J.7 ",
"K.L.M.M.M.M.M.M.M.M.M.M.M.M.N.O.P.N.M.M.M.M.M.M.M.M.M.M.M.M.Q.R.S.M.M.M.M.M.M.M.M.M.M.M.M.T.). .L.M.M.M.M.M.M.M.M.M.M.M.M.N.U.7 ",
"V.W.X.X.X.X.X.X.X.X.X.X.X.X.Y.Z.`. +X.X.X.X.X.X.X.X.X.X.X.X..+L.++@+X.X.X.X.X.X.X.X.X.X.X.#+!.$+%+X.X.X.X.X.X.X.X.X.X.X.X.&+*+7 ",
"8 =+h.h.h.h.h.h.h.h.h.h.h.h.-+a b ;+h.h.h.h.h.h.h.h.h.h.h.h.0 e f >+h.h.h.h.h.h.h.h.h.h.h.h.h i j h.h.h.h.h.h.h.h.h.h.h.h.h.,+7 ",
"8 9 0 0 0 0 0 0 0 0 0 0 0 0 0 a b c 0 0 0 0 0 0 0 0 0 0 0 0 d e f g 0 0 0 0 0 0 0 0 0 0 0 0 h i j 0 0 0 0 0 0 0 0 0 0 0 0 0 k 7 ",
"8 9 0 0 0 0 0 0 0 0 0 0 0 0 0 a b c 0 0 0 0 0 0 0 0 0 0 0 0 d e f g 0 0 0 0 0 0 0 0 0 0 0 0 h i j 0 0 0 0 0 0 0 0 0 0 0 0 0 k 7 ",
"8 9 0 0 0 0 0 0 0 0 0 0 0 0 0 a b c 0 0 0 0 0 0 0 0 0 0 0 0 d e f g 0 0 0 0 0 0 0 0 0 0 0 0 h i j 0 0 0 0 0 0 0 0 0 0 0 0 0 k 7 ",
"8 9 0 0 0 0 0 0 0 0 0 0 0 0 0 a b c 0 0 0 0 0 0 0 0 0 0 0 0 d e f g 0 0 0 0 0 0 0 0 0 0 0 0 h i j 0 0 0 0 0 0 0 0 0 0 0 0 0 k 7 ",
"8 9 0 0 0 0 0 0 0 0 0 0 0 0 0 a b c 0 0 0 0 0 0 0 0 0 0 0 0 d e f g 0 0 0 0 0 0 0 0 0 0 0 0 h i j 0 0 0 0 0 0 0 0 0 0 0 0 0 k 7 ",
"8 9 0 0 0 0 0 0 0 0 0 0 0 0 0 a b c 0 0 0 0 0 0 0 0 0 0 0 0 d e f g 0 0 0 0 0 0 0 0 0 0 0 0 h i j 0 0 0 0 0 0 0 0 0 0 0 0 0 k 7 ",
"8 9 0 0 0 0 0 0 0 0 0 0 0 0 0 a b c 0 0 0 0 0 0 0 0 0 0 0 0 d e f g 0 0 0 0 0 0 0 0 0 0 0 0 h i j 0 0 0 0 0 0 0 0 0 0 0 0 0 k 7 ",
"8 9 0 0 0 0 0 0 0 0 0 0 0 0 0 a b c 0 0 0 0 0 0 0 0 0 0 0 0 d e f g 0 0 0 0 0 0 0 0 0 0 0 0 h i j 0 0 0 0 0 0 0 0 0 0 0 0 0 k 7 ",
"'+)+0 0 0 0 0 0 0 0 0 0 0 0 0 a C !+0 0 0 0 0 0 0 0 0 0 0 0 d e f.0 0 0 0 0 0 0 0 0 0 0 0 0 h 1.9 0 0 0 0 0 0 0 0 0 0 0 0 0 k 7 ",
"u 0 0 0 0 0 0 0 0 0 0 0 0 0 0 a v 0 0 0 0 0 0 0 0 0 0 0 0 0 d r ~+0 0 0 0 0 0 0 0 0 0 0 0 0 h x 0 0 0 0 0 0 0 0 0 0 0 0 0 0 k 7 ",
"u 0 0 0 0 0 0 0 0 0 0 0 0 0 B {+v 0 0 0 0 0 0 0 0 0 0 0 0 0 o e w 0 0 0 0 0 0 0 0 0 0 0 0 h.]+x 0 0 0 0 0 0 0 0 0 0 0 0 0 q ^+7 ",
"/+(+_+_+_+_+_+_+_+_+_+_+_+_+:+<+[+}+_+_+_+_+_+_+_+_+_+_+_+_+I.5.|+_+_+_+_+_+_+_+_+_+_+_+_+1+2+3+4+_+_+_+_+_+_+_+_+_+_+_+_+5+6+7 ",
"7+8+9+0+0+0+0+0+0+0+0+0+0+0+9+a+b+c+0+0+0+0+0+0+0+0+0+0+0+0+d+e+f+g+0+0+0+0+0+0+0+0+0+0+0+0+h+i+j+9+0+0+0+0+0+0+0+0+0+0+0+9+k+7 ",
", l+m+n+n+n+n+n+n+n+n+n+n+m+o+p+q+r+n+n+n+n+n+n+n+n+n+n+n+m+Z.O.s+m+n+n+n+n+n+n+n+n+n+n+n+t+u+v+w+m+n+n+n+n+n+n+n+n+n+n+m+x+y+7 ",
"z+A+B+B+B+B+B+B+B+B+B+B+B+B+C+D+E+F+B+B+B+B+B+B+B+B+B+B+B+B+G+S.H+B+B+B+B+B+B+B+B+B+B+B+B+I+J+K+L+B+B+B+B+B+B+B+B+B+B+B+B+M+N+7 ",
"8 9 0 0 0 0 0 0 0 0 0 0 0 0 0 a b l 0 0 0 0 0 0 0 0 0 0 0 0 w e f 0 0 0 0 0 0 0 0 0 0 0 0 0 O+i j 0 0 0 0 0 0 0 0 0 0 0 0 0 k 7 ",
"8 9 0 0 0 0 0 0 0 0 0 0 0 0 0 a b c 0 0 0 0 0 0 0 0 0 0 0 0 d e f g 0 0 0 0 0 0 0 0 0 0 0 0 h i j 0 0 0 0 0 0 0 0 0 0 0 0 0 k 7 ",
"8 9 0 0 0 0 0 0 0 0 0 0 0 0 0 a b c 0 0 0 0 0 0 0 0 0 0 0 0 d e f g 0 0 0 0 0 0 0 0 0 0 0 0 h i j 0 0 0 0 0 0 0 0 0 0 0 0 0 k 7 ",
"8 9 0 0 0 0 0 0 0 0 0 0 0 0 0 a b c 0 0 0 0 0 0 0 0 0 0 0 0 d e f g 0 0 0 0 0 0 0 0 0 0 0 0 h i j 0 0 0 0 0 0 0 0 0 0 0 0 0 k 7 ",
"8 9 0 0 0 0 0 0 0 0 0 0 0 0 0 a b c 0 0 0 0 0 0 0 0 0 0 0 0 d e f g 0 0 0 0 0 0 0 0 0 0 0 0 h i j 0 0 0 0 0 0 0 0 0 0 0 0 0 k 7 ",
"8 9 0 0 0 0 0 0 0 0 0 0 0 0 0 a b c 0 0 0 0 0 0 0 0 0 0 0 0 d e f g 0 0 0 0 0 0 0 0 0 0 0 0 h i j 0 0 0 0 0 0 0 0 0 0 0 0 0 k 7 ",
"8 9 0 0 0 0 0 0 0 0 0 0 0 0 0 a b c 0 0 0 0 0 0 0 0 0 0 0 0 d e f g 0 0 0 0 0 0 0 0 0 0 0 0 h i j 0 0 0 0 0 0 0 0 0 0 0 0 0 k 7 ",
"8 9 0 0 0 0 0 0 0 0 0 0 0 0 0 a b c 0 0 0 0 0 0 0 0 0 0 0 0 d e f g 0 0 0 0 0 0 0 0 0 0 0 0 h i j 0 0 0 0 0 0 0 0 0 0 0 0 0 k 7 ",
"8 9 0 0 0 0 0 0 0 0 0 0 0 0 0 a b c 0 0 0 0 0 0 0 0 0 0 0 0 d e f g 0 0 0 0 0 0 0 0 0 0 0 0 h i j 0 0 0 0 0 0 0 0 0 0 0 0 0 k 7 ",
"P+l 0 0 0 0 0 0 0 0 0 0 0 0 0 a Q+B 0 0 0 0 0 0 0 0 0 0 0 0 d e R+0 0 0 0 0 0 0 0 0 0 0 0 0 h {+S+0 0 0 0 0 0 0 0 0 0 0 0 0 k 7 ",
"u 0 0 0 0 0 0 0 0 0 0 0 0 0 0 a v 0 0 0 0 0 0 0 0 0 0 0 0 0 d r w 0 0 0 0 0 0 0 0 0 0 0 0 0 h x 0 0 0 0 0 0 0 0 0 0 0 0 0 0 k 7 ",
"u 0 0 0 0 0 0 0 0 0 0 0 0 0 ;+T+v 0 0 0 0 0 0 0 0 0 0 0 0 0 y e w 0 0 0 0 0 0 0 0 0 0 0 0 q U+x 0 0 0 0 0 0 0 0 0 0 0 0 0 l V+7 ",
"P+W+X+X+X+X+X+X+X+X+X+X+X+X+Y+Z+Q+`+X+X+X+X+X+X+X+X+X+X+X+X+ @.@+@X+X+X+X+X+X+X+X+X+X+X+X+@@#@{+$@X+X+X+X+X+X+X+X+X+X+X+X+%@&@7 ",
"*@=@-@-@-@-@-@-@-@-@-@-@-@-@-@;@>@,@'@-@-@-@-@-@-@-@-@-@-@-@-@)@!@-@-@-@-@-@-@-@-@-@-@-@-@-@~@{@]@-@-@-@-@-@-@-@-@-@-@-@-@-@a+7 ",
"^@/@/@/@/@/@/@/@/@/@/@/@/@/@/@/@/@/@/@/@/@/@/@/@/@/@/@/@/@/@/@/@/@/@/@/@/@/@/@/@/@/@/@/@/@/@/@/@/@/@/@/@/@/@/@/@/@/@/@/@/@/@/@^@"};
