/* XPM */
static char * ghost_2_xpm[] = {
"64 64 3 1",
" 	c None",
".	c #5B6EE1",
"+	c #FFFFFF",
"                                                                ",
"                                                                ",
"                                                                ",
"                                                                ",
"                                                                ",
"                                                                ",
"                                                                ",
"                                                                ",
"                                                                ",
"                                                                ",
"                                                                ",
"                                                                ",
"                           ..........                           ",
"                        ................                        ",
"                      ....................                      ",
"                     ......................                     ",
"                   ..........................                   ",
"                  ............................                  ",
"                 ..............................                 ",
"                ................................                ",
"                ................................                ",
"               ..................................               ",
"              ........++++............++++........              ",
"              .......++++++..........++++++.......              ",
"             .......++++++++........++++++++.......             ",
"             .......++++++++........++++++++.......             ",
"             .......++++++++........++++++++.......             ",
"            ........++++++++........++++++++........            ",
"            .........++++++..........++++++.........            ",
"            ..........++++............++++..........            ",
"            ........................................            ",
"            ........................................            ",
"            ........................................            ",
"            ........................................            ",
"            ..........+.....+......+.....+..........            ",
"            .........+++...+++....+++...+++.........            ",
"            ........++.++.++.++..++.++.++.++........            ",
"            .......++...+++...++++...+++...++.......            ",
"            .......+.....+.....++.....+.....+.......            ",
"            ........................................            ",
"            ........................................            ",
"            ........................................            ",
"            ........................................            ",
"            ........................................            ",
"            ..........   ..............   ..........            ",
"            .........     ............     .........            ",
"             .......       ..........       .......             ",
"             .......       ..........       .......             ",
"             ......         ........         ......             ",
"              ....           ......           ....              ",
"              ....           ......           ....              ",
"               ..             ....             ..               ",
"                                                                ",
"                                                                ",
"                                                                ",
"                                                                ",
"                                                                ",
"                                                                ",
"                                                                ",
"                                                                ",
"                                                                ",
"                                                                ",
"                                                                ",
"                                                                "};
