/* XPM */
static char * west_xpm[] = {
"64 64 138 2",
"  	c #FFFFFF",
". 	c #777777",
"+ 	c #000000",
"@ 	c #D2D2D2",
"# 	c #565656",
"$ 	c #E5E5E5",
"% 	c #F7F7F7",
"& 	c #0D0D0D",
"* 	c #B0B0B0",
"= 	c #A8A8A8",
"- 	c #EDEDED",
"; 	c #C1C1C1",
"> 	c #D8D8D8",
", 	c #696969",
"' 	c #CACACA",
") 	c #919191",
"! 	c #161616",
"~ 	c #F3F3F3",
"{ 	c #9E9E9E",
"] 	c #3D3D3D",
"^ 	c #FDFDFD",
"/ 	c #787878",
"( 	c #B2B2B2",
"_ 	c #D9D9D9",
": 	c #CBCBCB",
"< 	c #8F8F8F",
"[ 	c #B1B1B1",
"} 	c #F8F8F8",
"| 	c #9F9F9F",
"1 	c #D7D7D7",
"2 	c #515151",
"3 	c #797979",
"4 	c #7A7A7A",
"5 	c #585858",
"6 	c #F6F6F6",
"7 	c #9B9B9B",
"8 	c #757575",
"9 	c #C7C7C7",
"0 	c #DADADA",
"a 	c #AEAEAE",
"b 	c #E9E9E9",
"c 	c #1C1C1C",
"d 	c #D6D6D6",
"e 	c #FEFEFE",
"f 	c #494949",
"g 	c #404040",
"h 	c #7C7C7C",
"i 	c #F5F5F5",
"j 	c #959595",
"k 	c #B3B3B3",
"l 	c #EEEEEE",
"m 	c #707070",
"n 	c #C3C3C3",
"o 	c #636363",
"p 	c #DBDBDB",
"q 	c #ABABAB",
"r 	c #E6E6E6",
"s 	c #A6A6A6",
"t 	c #F9F9F9",
"u 	c #D4D4D4",
"v 	c #D0D0D0",
"w 	c #7E7E7E",
"x 	c #5A5A5A",
"y 	c #F4F4F4",
"z 	c #909090",
"A 	c #F2F2F2",
"B 	c #B4B4B4",
"C 	c #6A6A6A",
"D 	c #BFBFBF",
"E 	c #686868",
"F 	c #E3E3E3",
"G 	c #A7A7A7",
"H 	c #222222",
"I 	c #A0A0A0",
"J 	c #D1D1D1",
"K 	c #FCFCFC",
"L 	c #353535",
"M 	c #7D7D7D",
"N 	c #7F7F7F",
"O 	c #5C5C5C",
"P 	c #898989",
"Q 	c #B5B5B5",
"R 	c #A9A9A9",
"S 	c #666666",
"T 	c #BBBBBB",
"U 	c #C2C2C2",
"V 	c #DCDCDC",
"W 	c #CCCCCC",
"X 	c #DFDFDF",
"Y 	c #929292",
"Z 	c #AAAAAA",
"` 	c #FAFAFA",
" .	c #FBFBFB",
"..	c #2A2A2A",
"+.	c #D3D3D3",
"@.	c #808080",
"#.	c #F0F0F0",
"$.	c #838383",
"%.	c #B6B6B6",
"&.	c #606060",
"*.	c #B7B7B7",
"=.	c #6E6E6E",
"-.	c #DDDDDD",
";.	c #CDCDCD",
">.	c #A3A3A3",
",.	c #262626",
"'.	c #A1A1A1",
").	c #D5D5D5",
"!.	c #828282",
"~.	c #5D5D5D",
"{.	c #717171",
"].	c #DEDEDE",
"^.	c #ADADAD",
"/.	c #A2A2A2",
"(.	c #5F5F5F",
"_.	c #767676",
":.	c #B9B9B9",
"<.	c #EFEFEF",
"[.	c #555555",
"}.	c #9D9D9D",
"|.	c #AFAFAF",
"1.	c #C9C9C9",
"2.	c #818181",
"3.	c #858585",
"4.	c #EBEBEB",
"5.	c #E0E0E0",
"6.	c #8B8B8B",
"7.	c #4F4F4F",
"8.	c #9A9A9A",
"9.	c #2E2E2E",
"0.	c #868686",
"a.	c #BABABA",
"b.	c #A5A5A5",
"c.	c #969696",
"d.	c #CFCFCF",
"e.	c #C4C4C4",
"f.	c #888888",
"g.	c #E7E7E7",
"                                                                                                                                ",
"                                                                                                                                ",
"                                                                                                                                ",
"                                                                                                                                ",
"                                                                                                                                ",
"                    . + + + + + @                                     # + + + + + + $                                   % & + + ",
"                    * + + + + + =                                   - + + + + + + + ;                                   > + + + ",
"                    > + + + + + ,                                   ' + + + + + + + )                                   * + + + ",
"                    % ! + + + + + ~                                 { + + + + + + + ] ^                                 / + + + ",
"                      / + + + + + @                                 # + + + + + + + + $                               % ! + + + ",
"                      ( + + + + + =                               - + + + + + + + + + ;                               > + + + + ",
"                      _ + + + + + ,                               : + + + + < + + + + )                               [ + + + + ",
"                      } ! + + + + + ~                             | + + + + 1 2 + + + ] ^                             3 + + + + ",
"                        4 + + + + + @                             5 + + + & 6 7 + + + + $                           } ! + + + + ",
"                        ( + + + + + =                           - + + + + 8   9 + + + + ;                           _ + + + + + ",
"                        0 + + + + + ,                           : + + + + a   b + + + + )                           ( + + + + + ",
"                        } c + + + + + ~                         | + + + + d   e f + + + g ^                         4 + + + + + ",
"                          h + + + + + @                         5 + + + + i     j + + + + $                       } ! + + + + + ",
"                          k + + + + + =                       l + + + + m       n + + + + ;                       0 + + + + + o ",
"                          p + + + + + ,                       : + + + + q       r + + + + )                       ( + + + + + s ",
"                          t c + + + + + ~                     | + + + + u       e ] + + + g ^                     h + + + + + v ",
"                            w + + + + + @                     x + + + + y         z + + + + $                   t c + + + + + A ",
"                            B + + + + + =                   l + + + + C           D + + + + ;                   0 + + + + + E   ",
"                            p + + + + + ,                   : + + + + =           F + + + + )                   k + + + + + G   ",
"                            t H + + + + + ~                 I + + + + J           K L + + + g e                 M + + + + + @   ",
"                              N + + + + + @                 O + + + + A             P + + + + r               t c + + + + + ~   ",
"                              Q + + + + + R               l + + + + S               T + + + + U               p + + + + + C     ",
"                              V + + + + + C               W + + + + s               X + + + + Y               B + + + + + Z     ",
"                              ` H + + + + + ~             I + + + + v                ...+ + + g e             w + + + + + +.    ",
"                                @.+ + + + + @             O + + + + #.                $.+ + + + r           t c + + + + + y     ",
"                                %.+ + + + + R           l + + + + &.                  *.+ + + + U           p + + + + + =.      ",
"                                -.+ + + + + C           ;.+ + + + >.                  V + + + + Y           Q + + + + + q       ",
"                                ` ,.+ + + + + ~         '.+ + + + ;.                  t c + + + g e         N + + + + + ).      ",
"                                  !.+ + + + + @         ~.+ + + + l                     M + + + + r       ` H + + + + + i       ",
"                                  *.+ + + + + R       l + + + + x                       k + + + + U       V + + + + + {.        ",
"                                  ].+ + + + + C       ;.+ + + + |                       _ + + + + Y       %.+ + + + + ^.        ",
"                                   .,.+ + + + + ~     /.+ + + + :                       % & + + + g e     @.+ + + + + d         ",
"                                    $.+ + + + + @     (.+ + + + -                         _.+ + + + r   ` H + + + + & 6         ",
"                                    :.+ + + + + R   <.+ + + + [.                          a + + + + U   V + + + + + 8           ",
"                                    ].+ + + + + C   ;.+ + + + }.                          d + + + + Y   %.+ + + + + |.          ",
"                                     ...+ + + + + ~ /.+ + + + 1.                          i + + + + g e 2.+ + + + + 1           ",
"                                      3.+ + + + + @ (.+ + + + 4.                            =.+ + + + 5.,.+ + + + & %           ",
"                                      :.+ + + + + 6.+ + + + 7.                              Z + + + + 6.+ + + + + .             ",
"                                      X + + + + + + + + + + 8.                              @ + + + + + + + + + + [             ",
"                                       .9.+ + + + + + + + + 9                               ~ + + + + + + + + + + >             ",
"                                        0.+ + + + + + + + + b                                 S + + + + + + + + ! %             ",
"                                        a.+ + + + + + + + f e                                 b.+ + + + + + + + 4               ",
"                                        5.+ + + + + + + + c.                                  d.+ + + + + + + + (               ",
"                                         .9.+ + + + + + + e.                                  <.+ + + + + + + + 0               ",
"                                          f.+ + + + + + + g.                                    ~.+ + + + + + c }               ",
"                                                                                                                                ",
"                                                                                                                                ",
"                                                                                                                                ",
"                                                                                                                                ",
"                                                                                                                                ",
"                                                                                                                                ",
"                                                                                                                                ",
"                                                                                                                                ",
"                                                                                                                                ",
"                                                                                                                                ",
"                                                                                                                                ",
"                                                                                                                                ",
"                                                                                                                                ",
"                                                                                                                                "};
